<?xml version="1.0" encoding="UTF-8" standalone="no"?>
<svg width="48px" height="48px" viewBox="0 0 48 48" version="1.1" xmlns="http://www.w3.org/2000/svg" xmlns:xlink="http://www.w3.org/1999/xlink" xmlns:sketch="http://www.bohemiancoding.com/sketch/ns">
    <!-- Generator: Sketch 3.2.2 (9983) - http://www.bohemiancoding.com/sketch -->
    <title>globe</title>
    <desc>Created with Sketch.</desc>
    <defs></defs>
    <g id="Page-1" stroke="none" stroke-width="1" fill="none" fill-rule="evenodd" sketch:type="MSPage">
        <g id="globe" sketch:type="MSArtboardGroup">
            <g sketch:type="MSLayerGroup">
                <g id="svgGrid" stroke="#B35047" sketch:type="MSShapeGroup">
                    <path id="Shape" fill="#000000" d="M3,0 L3,48"></path>
                    <path id="Shape" fill="#000000" d="M6,0 L6,48"></path>
                    <path id="Shape" fill="#000000" d="M9,0 L9,48"></path>
                    <path id="Shape" fill="#000000" d="M12,0 L12,48"></path>
                    <path id="Shape" fill="#000000" d="M15,0 L15,48"></path>
                    <path id="Shape" fill="#000000" d="M18,0 L18,48"></path>
                    <path id="Shape" fill="#000000" d="M21,0 L21,48"></path>
                    <path id="Shape" fill="#000000" d="M24,0 L24,48"></path>
                    <path id="Shape" fill="#000000" d="M27,0 L27,48"></path>
                    <path id="Shape" fill="#000000" d="M30,0 L30,48"></path>
                    <path id="Shape" fill="#000000" d="M33,0 L33,48"></path>
                    <path id="Shape" fill="#000000" d="M36,0 L36,48"></path>
                    <path id="Shape" fill="#000000" d="M39,0 L39,48"></path>
                    <path id="Shape" fill="#000000" d="M42,0 L42,48"></path>
                    <path id="Shape" fill="#000000" d="M45,0 L45,48"></path>
                    <path id="Shape" fill="#000000" d="M0,3 L48,3"></path>
                    <path id="Shape" fill="#000000" d="M0,6 L48,6"></path>
                    <path id="Shape" fill="#000000" d="M0,9 L48,9"></path>
                    <path id="Shape" fill="#000000" d="M0,12 L48,12"></path>
                    <path id="Shape" fill="#000000" d="M0,15 L48,15"></path>
                    <path id="Shape" fill="#000000" d="M0,18 L48,18"></path>
                    <path id="Shape" fill="#000000" d="M0,21 L48,21"></path>
                    <path id="Shape" fill="#000000" d="M0,24 L48,24"></path>
                    <path id="Shape" fill="#000000" d="M0,27 L48,27"></path>
                    <path id="Shape" fill="#000000" d="M0,30 L48,30"></path>
                    <path id="Shape" fill="#000000" d="M0,33 L48,33"></path>
                    <path id="Shape" fill="#000000" d="M0,36 L48,36"></path>
                    <path id="Shape" fill="#000000" d="M0,39 L48,39"></path>
                    <path id="Shape" fill="#000000" d="M0,42 L48,42"></path>
                    <path id="Shape" fill="#000000" d="M0,45 L48,45"></path>
                    <rect id="Rectangle-path" x="0" y="0" width="48" height="48"></rect>
                </g>
                <path d="M24,0 C10.7452,0 0,10.7452 0,24 C0,37.2549 10.7452,48 24,48 C37.2549,48 48,37.2549 48,24 C48,10.7452 37.2549,0 24,0 L24,0 Z M37.5795,32 C38.0085,29.9773 38.2793,27.8304 38.3674,25.6 L44.7397,25.6 C44.5729,27.8098 44.0585,29.9557 43.2057,32 L37.5795,32 L37.5795,32 Z M10.4205,16 C9.9915,18.0227 9.7207,20.1696 9.6326,22.4 L3.2604,22.4 C3.4272,20.1903 3.9415,18.0443 4.7943,16 L10.4205,16 L10.4205,16 Z M34.3018,16 C34.7825,18.0481 35.0717,20.1927 35.1658,22.4 L25.6,22.4 L25.6,16 L34.3018,16 L34.3018,16 Z M25.6,12.8 L25.6,3.4331 C26.3295,3.6454 27.0522,4.0016 27.7614,4.5016 C29.0905,5.4386 30.362,6.882 31.4384,8.6759 C32.1825,9.916 32.826,11.2967 33.3632,12.8001 L25.6,12.8001 L25.6,12.8 Z M16.5616,8.6758 C17.638,6.8819 18.9094,5.4384 20.2386,4.5015 C20.9477,4.0015 21.6705,3.6453 22.4,3.433 L22.4,12.8 L14.6368,12.8 C15.1741,11.2967 15.8176,9.916 16.5616,8.6758 L16.5616,8.6758 Z M22.4,16 L22.4,22.4 L12.8343,22.4 C12.9283,20.1927 13.2176,18.0481 13.6982,16 L22.4,16 L22.4,16 Z M4.7944,32 C3.9416,29.9557 3.4273,27.8098 3.2605,25.6 L9.6327,25.6 C9.7208,27.8304 9.9916,29.9773 10.4206,32 L4.7944,32 L4.7944,32 Z M12.8343,25.6 L22.4,25.6 L22.4,32 L13.6982,32 C13.2176,29.952 12.9283,27.8073 12.8343,25.6 L12.8343,25.6 Z M22.4,35.2 L22.4,44.567 C21.6706,44.3547 20.9478,43.9984 20.2386,43.4985 C18.9094,42.5615 17.6379,41.118 16.5616,39.3242 C15.8175,38.084 15.1741,36.7033 14.6367,35.2 L22.4,35.2 L22.4,35.2 Z M31.4384,39.3242 C30.362,41.118 29.0905,42.5615 27.7614,43.4985 C27.0522,43.9984 26.3295,44.3547 25.6,44.567 L25.6,35.2 L33.3633,35.2 C32.826,36.7033 32.1825,38.084 31.4384,39.3242 L31.4384,39.3242 Z M25.6,32 L25.6,25.6 L35.1657,25.6 C35.0717,27.8073 34.7824,29.952 34.3017,32 L25.6,32 L25.6,32 Z M38.3674,22.4 C38.2793,20.1696 38.0085,18.0227 37.5795,16 L43.2057,16 C44.0585,18.0443 44.5729,20.1903 44.7397,22.4 L38.3674,22.4 L38.3674,22.4 Z M41.5329,12.8 L36.7379,12.8 C35.806,9.8619 34.5191,7.2853 32.9721,5.2286 C35.0989,6.2456 37.025,7.6094 38.7078,9.2922 C39.7818,10.3661 40.7259,11.5391 41.5329,12.8 L41.5329,12.8 Z M9.2922,9.2922 C10.9751,7.6093 12.9012,6.2456 15.0279,5.2286 C13.4808,7.2853 12.1941,9.8619 11.2621,12.8 L6.4672,12.8 C7.2741,11.5391 8.2183,10.3661 9.2922,9.2922 L9.2922,9.2922 Z M6.4672,35.2 L11.2621,35.2 C12.1941,38.1381 13.4809,40.7147 15.028,42.7715 C12.9012,41.7545 10.9751,40.3907 9.2923,38.7078 C8.2183,37.6339 7.2741,36.4609 6.4672,35.2 L6.4672,35.2 Z M38.7078,38.7078 C37.025,40.3907 35.0988,41.7545 32.9721,42.7715 C34.5192,40.7148 35.806,38.1381 36.7379,35.2 L41.5329,35.2 C40.7259,36.4609 39.7818,37.6339 38.7078,38.7078 L38.7078,38.7078 Z" id="Shape" fill-opacity="0.8" fill="#A60014" sketch:type="MSShapeGroup"></path>
            </g>
        </g>
    </g>
</svg>