<?xml version="1.0" encoding="UTF-8" standalone="no"?>
<svg width="48px" height="48px" viewBox="0 0 48 48" version="1.1" xmlns="http://www.w3.org/2000/svg" xmlns:xlink="http://www.w3.org/1999/xlink" xmlns:sketch="http://www.bohemiancoding.com/sketch/ns">
    <!-- Generator: Sketch 3.2.2 (9983) - http://www.bohemiancoding.com/sketch -->
    <title>mail</title>
    <desc>Created with Sketch.</desc>
    <defs></defs>
    <g id="Page-1" stroke="none" stroke-width="1" fill="none" fill-rule="evenodd" sketch:type="MSPage">
        <g id="mail" sketch:type="MSArtboardGroup">
            <g id="mail2" sketch:type="MSLayerGroup">
                <g id="svgGrid" stroke="#B35047" sketch:type="MSShapeGroup">
                    <path id="Shape" fill="#000000" d="M3,0 L3,48"></path>
                    <path id="Shape" fill="#000000" d="M6,0 L6,48"></path>
                    <path id="Shape" fill="#000000" d="M9,0 L9,48"></path>
                    <path id="Shape" fill="#000000" d="M12,0 L12,48"></path>
                    <path id="Shape" fill="#000000" d="M15,0 L15,48"></path>
                    <path id="Shape" fill="#000000" d="M18,0 L18,48"></path>
                    <path id="Shape" fill="#000000" d="M21,0 L21,48"></path>
                    <path id="Shape" fill="#000000" d="M24,0 L24,48"></path>
                    <path id="Shape" fill="#000000" d="M27,0 L27,48"></path>
                    <path id="Shape" fill="#000000" d="M30,0 L30,48"></path>
                    <path id="Shape" fill="#000000" d="M33,0 L33,48"></path>
                    <path id="Shape" fill="#000000" d="M36,0 L36,48"></path>
                    <path id="Shape" fill="#000000" d="M39,0 L39,48"></path>
                    <path id="Shape" fill="#000000" d="M42,0 L42,48"></path>
                    <path id="Shape" fill="#000000" d="M45,0 L45,48"></path>
                    <path id="Shape" fill="#000000" d="M0,3 L48,3"></path>
                    <path id="Shape" fill="#000000" d="M0,6 L48,6"></path>
                    <path id="Shape" fill="#000000" d="M0,9 L48,9"></path>
                    <path id="Shape" fill="#000000" d="M0,12 L48,12"></path>
                    <path id="Shape" fill="#000000" d="M0,15 L48,15"></path>
                    <path id="Shape" fill="#000000" d="M0,18 L48,18"></path>
                    <path id="Shape" fill="#000000" d="M0,21 L48,21"></path>
                    <path id="Shape" fill="#000000" d="M0,24 L48,24"></path>
                    <path id="Shape" fill="#000000" d="M0,27 L48,27"></path>
                    <path id="Shape" fill="#000000" d="M0,30 L48,30"></path>
                    <path id="Shape" fill="#000000" d="M0,33 L48,33"></path>
                    <path id="Shape" fill="#000000" d="M0,36 L48,36"></path>
                    <path id="Shape" fill="#000000" d="M0,39 L48,39"></path>
                    <path id="Shape" fill="#000000" d="M0,42 L48,42"></path>
                    <path id="Shape" fill="#000000" d="M0,45 L48,45"></path>
                    <rect id="Rectangle-path" x="0" y="0" width="48" height="48"></rect>
                </g>
                <path d="M40.0004062,0 L8.00090625,0 C3.6005625,0 0,3.60046875 0,8.00109375 L0,39.999 C0,44.4023438 3.6005625,48 8.00090625,48 L40.0004062,48 C44.4008437,48 48,44.4023438 48,39.9989062 L48,8.00109375 C48,3.60046875 44.4008437,0 40.0004062,0 L40.0004062,0 Z M40.0004063,6 C40.3748438,6 40.729125,6.10940625 41.0325938,6.29728125 L24,20.3787187 L6.96778125,6.29746875 C7.2714375,6.1095 7.62609375,6 8.00090625,6 L40.0004063,6 L40.0004063,6 Z M8.00090625,42 C7.91071875,42 7.82184375,41.9931563 7.73446875,41.980875 L18.3106875,27.3105937 L16.9393125,25.9393125 L6,36.8785312 L6,8.2314375 L24,30 L42,8.23153125 L42,36.8785312 L31.0606875,25.9393125 L29.6894063,27.3105937 L40.2657187,41.9809688 C40.178625,41.9931563 40.090125,42 40.0003125,42 L8.00090625,42 L8.00090625,42 Z" id="Shape" fill-opacity="0.8" fill="#A60014" sketch:type="MSShapeGroup"></path>
            </g>
        </g>
    </g>
</svg>