<?xml version="1.0" encoding="UTF-8" standalone="no"?>
<svg width="48px" height="48px" viewBox="0 0 48 48" version="1.1" xmlns="http://www.w3.org/2000/svg" xmlns:xlink="http://www.w3.org/1999/xlink" xmlns:sketch="http://www.bohemiancoding.com/sketch/ns">
    <!-- Generator: Sketch 3.2.2 (9983) - http://www.bohemiancoding.com/sketch -->
    <title>phone</title>
    <desc>Created with Sketch.</desc>
    <defs></defs>
    <g id="Page-1" stroke="none" stroke-width="1" fill="none" fill-rule="evenodd" sketch:type="MSPage">
        <g id="phone" sketch:type="MSArtboardGroup">
            <g sketch:type="MSLayerGroup">
                <g id="svgGrid" stroke="#B35047" sketch:type="MSShapeGroup">
                    <path id="Shape" fill="#000000" d="M3,0 L3,48"></path>
                    <path id="Shape" fill="#000000" d="M6,0 L6,48"></path>
                    <path id="Shape" fill="#000000" d="M9,0 L9,48"></path>
                    <path id="Shape" fill="#000000" d="M12,0 L12,48"></path>
                    <path id="Shape" fill="#000000" d="M15,0 L15,48"></path>
                    <path id="Shape" fill="#000000" d="M18,0 L18,48"></path>
                    <path id="Shape" fill="#000000" d="M21,0 L21,48"></path>
                    <path id="Shape" fill="#000000" d="M24,0 L24,48"></path>
                    <path id="Shape" fill="#000000" d="M27,0 L27,48"></path>
                    <path id="Shape" fill="#000000" d="M30,0 L30,48"></path>
                    <path id="Shape" fill="#000000" d="M33,0 L33,48"></path>
                    <path id="Shape" fill="#000000" d="M36,0 L36,48"></path>
                    <path id="Shape" fill="#000000" d="M39,0 L39,48"></path>
                    <path id="Shape" fill="#000000" d="M42,0 L42,48"></path>
                    <path id="Shape" fill="#000000" d="M45,0 L45,48"></path>
                    <path id="Shape" fill="#000000" d="M0,3 L48,3"></path>
                    <path id="Shape" fill="#000000" d="M0,6 L48,6"></path>
                    <path id="Shape" fill="#000000" d="M0,9 L48,9"></path>
                    <path id="Shape" fill="#000000" d="M0,12 L48,12"></path>
                    <path id="Shape" fill="#000000" d="M0,15 L48,15"></path>
                    <path id="Shape" fill="#000000" d="M0,18 L48,18"></path>
                    <path id="Shape" fill="#000000" d="M0,21 L48,21"></path>
                    <path id="Shape" fill="#000000" d="M0,24 L48,24"></path>
                    <path id="Shape" fill="#000000" d="M0,27 L48,27"></path>
                    <path id="Shape" fill="#000000" d="M0,30 L48,30"></path>
                    <path id="Shape" fill="#000000" d="M0,33 L48,33"></path>
                    <path id="Shape" fill="#000000" d="M0,36 L48,36"></path>
                    <path id="Shape" fill="#000000" d="M0,39 L48,39"></path>
                    <path id="Shape" fill="#000000" d="M0,42 L48,42"></path>
                    <path id="Shape" fill="#000000" d="M0,45 L48,45"></path>
                    <rect id="Rectangle-path" x="0" y="0" width="48" height="48"></rect>
                </g>
                <path d="M35.2,28.8 C32,32 32,35.2 28.8,35.2 C25.6,35.2 22.4,32 19.2,28.8 C16,25.6 12.8,22.4 12.8,19.2 C12.8,16 16,16 19.2,12.8 C22.4,9.6 12.8,0 9.6,0 C6.4,0 0,9.6 0,9.6 C0,16 6.575,28.975 12.8,35.2 C19.025,41.425 32,48 38.4,48 C38.4,48 48,41.6 48,38.4 C48,35.2 38.4,25.6 35.2,28.8 L35.2,28.8 Z" id="Shape" fill-opacity="0.8" fill="#A60014" sketch:type="MSShapeGroup"></path>
            </g>
        </g>
    </g>
</svg>